<?xml version="1.0" encoding="UTF-8"?>
<svg xmlns="http://www.w3.org/2000/svg" width="430" height="872" viewBox="0 0 430 872" role="img" aria-labelledby="title desc">
<title id="title">App 基本信息编辑页</title>
<desc id="desc">HealthGuard App basic profile edit prototype from My profile module.</desc>
<style>text{font-family:"Microsoft YaHei","PingFang SC","Noto Sans CJK SC",Arial,sans-serif;letter-spacing:0}</style>
<defs>
  <filter id="softShadow" x="-18%" y="-18%" width="136%" height="145%"><feDropShadow dx="0" dy="12" stdDeviation="16" flood-color="#173026" flood-opacity="0.08"/></filter>
  <linearGradient id="screenBg" x1="0" y1="0" x2="1" y2="1"><stop offset="0" stop-color="#F7FAF6"/><stop offset="1" stop-color="#EFF4EF"/></linearGradient>
  <linearGradient id="buttonGrad" x1="0" x2="1"><stop offset="0" stop-color="#15A3A3"/><stop offset="1" stop-color="#087B83"/></linearGradient>
</defs>
<rect x="0" y="0" width="430" height="872" fill="#E8EEE8"/>
<rect x="14" y="14" width="402" height="844" rx="40" fill="url(#screenBg)" stroke="#1F352B" stroke-width="5"/>
<text x="42" y="52" font-size="15" fill="#0B1D17" font-weight="800">9:41</text>
<circle cx="322" cy="39" r="7" fill="#4B5750"/>
<circle cx="344" cy="39" r="7" fill="#4B5750"/>
<rect x="356" y="33" width="20" height="11" rx="6" fill="#4B5750"/>

<circle cx="54" cy="96" r="18" fill="#FFFFFF" filter="url(#softShadow)"/>
<text x="54" y="103" font-size="24" fill="#173844" font-weight="700" text-anchor="middle">‹</text>
<text x="84" y="92" font-size="13" fill="#60708F" font-weight="600">健康档案</text>
<text x="84" y="122" font-size="24" fill="#0B1D17" font-weight="900">基本信息</text>
<rect x="305" y="84" width="78" height="34" rx="17" fill="#EAF8F4" stroke="#CFECE5"/>
<text x="344" y="106" font-size="13" fill="#087B83" font-weight="800" text-anchor="middle">已修改</text>

<rect x="36" y="148" width="348" height="92" rx="22" fill="#FFFFFF" filter="url(#softShadow)"/>
<text x="60" y="184" font-size="16" fill="#0B1D17" font-weight="900">档案完整度 80%</text>
<text x="60" y="210" font-size="12" fill="#60708F" font-weight="600">基础信息会影响健康分、AI 建议和报告解释</text>
<rect x="244" y="184" width="104" height="8" rx="4" fill="#ECF1EE"/>
<rect x="244" y="184" width="84" height="8" rx="4" fill="#15A3A3"/>

<rect x="36" y="262" width="348" height="434" rx="24" fill="#FFFFFF" filter="url(#softShadow)"/>
<text x="60" y="300" font-size="18" fill="#0B1D17" font-weight="900">编辑资料</text>
<text x="60" y="326" font-size="12" fill="#60708F" font-weight="600">保存后同步刷新“我的”和首页状态</text>

<rect x="58" y="350" width="300" height="58" rx="16" fill="#F8FCFB" stroke="#DCE9E6"/>
<text x="76" y="374" font-size="12" fill="#60708F" font-weight="600">昵称</text>
<text x="76" y="397" font-size="16" fill="#0B1D17" font-weight="900">张先生</text>

<text x="60" y="438" font-size="13" fill="#60708F" font-weight="700">性别</text>
<rect x="106" y="416" width="72" height="38" rx="19" fill="#DDF5EF"/>
<text x="142" y="441" font-size="14" fill="#087B83" font-weight="900" text-anchor="middle">男</text>
<rect x="186" y="416" width="72" height="38" rx="19" fill="#FFFFFF" stroke="#E8EEE9"/>
<text x="222" y="441" font-size="14" fill="#60708F" font-weight="700" text-anchor="middle">女</text>
<rect x="266" y="416" width="72" height="38" rx="19" fill="#FFFFFF" stroke="#E8EEE9"/>
<text x="302" y="441" font-size="14" fill="#60708F" font-weight="700" text-anchor="middle">未设</text>

<rect x="58" y="474" width="92" height="58" rx="16" fill="#F8FCFB" stroke="#DCE9E6"/>
<text x="74" y="498" font-size="12" fill="#60708F" font-weight="600">年龄</text>
<text x="74" y="521" font-size="16" fill="#0B1D17" font-weight="900">31 岁</text>
<rect x="162" y="474" width="92" height="58" rx="16" fill="#F8FCFB" stroke="#DCE9E6"/>
<text x="178" y="498" font-size="12" fill="#60708F" font-weight="600">身高</text>
<text x="178" y="521" font-size="16" fill="#0B1D17" font-weight="900">175 cm</text>
<rect x="266" y="474" width="92" height="58" rx="16" fill="#FFF9F4" stroke="#F2D9C8"/>
<text x="282" y="498" font-size="12" fill="#B36D3A" font-weight="700">体重</text>
<text x="282" y="521" font-size="16" fill="#0B1D17" font-weight="900">71.6 kg</text>

<text x="60" y="570" font-size="13" fill="#60708F" font-weight="700">健康目标</text>
<rect x="58" y="590" width="72" height="38" rx="19" fill="#DDF5EF"/>
<text x="94" y="615" font-size="14" fill="#087B83" font-weight="900" text-anchor="middle">减脂</text>
<rect x="138" y="590" width="72" height="38" rx="19" fill="#FFFFFF" stroke="#E8EEE9"/>
<text x="174" y="615" font-size="14" fill="#60708F" font-weight="700" text-anchor="middle">增肌</text>
<rect x="218" y="590" width="72" height="38" rx="19" fill="#FFFFFF" stroke="#E8EEE9"/>
<text x="254" y="615" font-size="14" fill="#60708F" font-weight="700" text-anchor="middle">保持</text>
<rect x="298" y="590" width="60" height="38" rx="19" fill="#FFFFFF" stroke="#E8EEE9"/>
<text x="328" y="615" font-size="14" fill="#60708F" font-weight="700" text-anchor="middle">控糖</text>

<rect x="58" y="646" width="300" height="32" rx="16" fill="#FFF5EA"/>
<text x="76" y="667" font-size="12" fill="#B36D3A" font-weight="700">体重变化会同步影响体重趋势和报告缓存</text>

<rect x="36" y="716" width="348" height="66" rx="20" fill="#EEFBF8" filter="url(#softShadow)"/>
<circle cx="66" cy="749" r="15" fill="#DDF5EF"/>
<text x="66" y="755" font-size="15" fill="#087B83" font-weight="900" text-anchor="middle">i</text>
<text x="92" y="744" font-size="13" fill="#0B1D17" font-weight="900">数据用途</text>
<text x="92" y="766" font-size="11" fill="#60708F" font-weight="600">用于健康分、AI 建议、Garmin 指标解释</text>

<rect x="32" y="806" width="366" height="40" rx="20" fill="url(#buttonGrad)"/>
<text x="215" y="831" font-size="15" fill="#FFFFFF" font-weight="900" text-anchor="middle">保存基本信息</text>
</svg>
