<?xml version="1.0" encoding="UTF-8"?>
<svg xmlns="http://www.w3.org/2000/svg" width="430" height="872" viewBox="0 0 430 872" role="img" aria-labelledby="title desc"><title id="title">App 记录中心页</title><desc id="desc">HealthGuard App 记录中心页 prototype generated from the weekly development plan.</desc><style>text{font-family:"Microsoft YaHei","PingFang SC","Noto Sans CJK SC",Arial,sans-serif;letter-spacing:0}</style><defs><filter id="softShadow" x="-18%" y="-18%" width="136%" height="145%"><feDropShadow dx="0" dy="12" stdDeviation="16" flood-color="#173026" flood-opacity="0.08"/></filter><filter id="navShadow" x="-16%" y="-35%" width="132%" height="170%"><feDropShadow dx="0" dy="8" stdDeviation="12" flood-color="#173026" flood-opacity="0.12"/></filter><linearGradient id="screenBg" x1="0" y1="0" x2="1" y2="1"><stop offset="0" stop-color="#F7FAF6"/><stop offset="1" stop-color="#EFF4EF"/></linearGradient><linearGradient id="mintAction" x1="0" y1="0" x2="1" y2="1"><stop offset="0" stop-color="#78F0DC"/><stop offset="1" stop-color="#51DFCF"/></linearGradient><linearGradient id="proCard" x1="0" y1="0" x2="1" y2="1"><stop offset="0" stop-color="#193329"/><stop offset="1" stop-color="#4A604B"/></linearGradient><linearGradient id="chartFade" x1="0" y1="0" x2="0" y2="1"><stop offset="0" stop-color="#A9EEE7" stop-opacity="0.60"/><stop offset="1" stop-color="#FFFFFF" stop-opacity="0"/></linearGradient></defs><rect x="0" y="0" width="430" height="872" rx="0" fill="#E8EEE8"/><rect x="14" y="14" width="402" height="844" rx="40" fill="url(#screenBg)" stroke="#1F352B" stroke-width="5"/><text x="42" y="52" font-size="15" fill="#0B1D17" font-weight="800">9:41</text><circle cx="322" cy="39" r="7" fill="#4B5750"/><circle cx="344" cy="39" r="7" fill="#4B5750"/><rect x="356" y="33" width="20" height="11" rx="6" fill="#4B5750"/><text x="40" y="102" font-size="14" fill="#60708F" font-weight="500">快捷记录</text><text x="40" y="134" font-size="24" fill="#0B1D17" font-weight="900">记录中心</text><rect x="36" y="170" width="348" height="94" rx="22" fill="#FFFFFF" filter="url(#softShadow)"/><text x="60" y="204" font-size="20" fill="#0B1D17" font-weight="900">今天还差 2 项记录</text><text x="60" y="230" font-size="13" fill="#60708F" font-weight="600">补齐饮水和睡眠，AI 建议会更准确</text><rect x="250" y="196" width="104" height="48" rx="18" fill="url(#mintAction)"/><text x="302" y="226" font-size="14" fill="#0B1D17" font-weight="900" text-anchor="middle">一键补记</text><rect x="36" y="288" width="348" height="246" rx="24" fill="#FFFFFF" filter="url(#softShadow)"/><text x="58" y="326" font-size="18" fill="#0B1D17" font-weight="900">常用记录</text><rect x="54" y="362" width="36" height="36" rx="12" fill="#EEFBF8"/><text x="72" y="386" font-size="17" fill="#00A79D" font-weight="800" text-anchor="middle">☕</text><text x="104" y="378" font-size="15" fill="#0B1D17" font-weight="850">饮水</text><text x="104" y="400" font-size="12" fill="#60708F" font-weight="600">快速添加 250ml / 500ml</text><text x="360" y="387" font-size="22" fill="#60708F" font-weight="500" text-anchor="middle">›</text><line x1="36" y1="416" x2="384" y2="416" stroke="#E8EEE9" stroke-width="1" stroke-linecap="round"/><rect x="54" y="426" width="36" height="36" rx="12" fill="#EEFBF8"/><text x="72" y="450" font-size="17" fill="#00A79D" font-weight="800" text-anchor="middle">☾</text><text x="104" y="442" font-size="15" fill="#0B1D17" font-weight="850">睡眠</text><text x="104" y="464" font-size="12" fill="#60708F" font-weight="600">记录昨晚入睡与起床</text><text x="360" y="451" font-size="22" fill="#60708F" font-weight="500" text-anchor="middle">›</text><line x1="36" y1="480" x2="384" y2="480" stroke="#E8EEE9" stroke-width="1" stroke-linecap="round"/><rect x="54" y="490" width="36" height="36" rx="12" fill="#EEFBF8"/><text x="72" y="514" font-size="17" fill="#00A79D" font-weight="800" text-anchor="middle">⚖</text><text x="104" y="506" font-size="15" fill="#0B1D17" font-weight="850">体重</text><text x="104" y="528" font-size="12" fill="#60708F" font-weight="600">同步到数据趋势</text><text x="360" y="515" font-size="22" fill="#60708F" font-weight="500" text-anchor="middle">›</text><line x1="36" y1="544" x2="384" y2="544" stroke="#E8EEE9" stroke-width="1" stroke-linecap="round"/><rect x="36" y="558" width="348" height="144" rx="24" fill="#FFFFFF" filter="url(#softShadow)"/><text x="58" y="596" font-size="18" fill="#0B1D17" font-weight="900">饮食与运动</text><rect x="260" y="574" width="76" height="28" rx="14" fill="#DAF7F2"/><text x="298" y="593" font-size="12" fill="#008B82" font-weight="800" text-anchor="middle">已鉴权</text><rect x="54" y="632" width="36" height="36" rx="12" fill="#EEFBF8"/><text x="72" y="656" font-size="17" fill="#F39A73" font-weight="800" text-anchor="middle">▣</text><text x="104" y="648" font-size="15" fill="#0B1D17" font-weight="850">记饮食</text><text x="104" y="670" font-size="12" fill="#60708F" font-weight="600">拍照 / 手动 / AI</text><text x="186" y="657" font-size="22" fill="#60708F" font-weight="500" text-anchor="middle">›</text><line x1="36" y1="686" x2="210" y2="686" stroke="#E8EEE9" stroke-width="1" stroke-linecap="round"/><rect x="228" y="632" width="36" height="36" rx="12" fill="#EEFBF8"/><text x="246" y="656" font-size="17" fill="#00A79D" font-weight="800" text-anchor="middle">↟</text><text x="278" y="648" font-size="15" fill="#0B1D17" font-weight="850">记运动</text><text x="278" y="670" font-size="12" fill="#60708F" font-weight="600">有氧 / 力量 / 拉伸</text><text x="360" y="657" font-size="22" fill="#60708F" font-weight="500" text-anchor="middle">›</text><line x1="210" y1="686" x2="384" y2="686" stroke="#E8EEE9" stroke-width="1" stroke-linecap="round"/><rect x="36" y="724" width="348" height="46" rx="18" fill="#EEFBF8"/><text x="58" y="753" font-size="13" fill="#008B82" font-weight="800">✣ 补记历史日期后，会自动进入对应日期汇总。</text><rect x="34" y="777" width="362" height="62" rx="26" fill="#FFFFFF" filter="url(#navShadow)"/><text x="80" y="804" font-size="24" fill="#00A79D" font-weight="700" text-anchor="middle">⌂</text><text x="80" y="825" font-size="12" fill="#008B82" font-weight="600" text-anchor="middle">首页</text><text x="164" y="804" font-size="24" fill="#60708F" font-weight="700" text-anchor="middle">▥</text><text x="164" y="825" font-size="12" fill="#60708F" font-weight="600" text-anchor="middle">数据</text><text x="248" y="804" font-size="24" fill="#60708F" font-weight="700" text-anchor="middle">✣</text><text x="248" y="825" font-size="12" fill="#60708F" font-weight="600" text-anchor="middle">AI 建议</text><text x="332" y="804" font-size="24" fill="#60708F" font-weight="700" text-anchor="middle">♙</text><text x="332" y="825" font-size="12" fill="#60708F" font-weight="600" text-anchor="middle">我的</text></svg>
