<?xml version="1.0" encoding="UTF-8"?>
<svg xmlns="http://www.w3.org/2000/svg" width="1440" height="1024" viewBox="0 0 1440 1024" role="img" aria-labelledby="title desc">
<title id="title">Web 组织管理端 / 运营后台</title><desc id="desc">HealthGuard admin operations prototype.</desc>
<style>text{font-family:"Microsoft YaHei","PingFang SC","Noto Sans CJK SC",Arial,sans-serif;letter-spacing:0}.muted{fill:#61727B}.ink{fill:#173844}.teal{fill:#087B83}.label{font-size:14px;font-weight:800}.small{font-size:13px}.h1{font-size:30px;font-weight:900}.h2{font-size:18px;font-weight:900}.num{font-size:28px;font-weight:900}.line{stroke:#DCE9E6;stroke-width:1}</style>
<defs><filter id="shadow" x="-20%" y="-20%" width="140%" height="150%"><feDropShadow dx="0" dy="12" stdDeviation="14" flood-color="#12343C" flood-opacity="0.10"/></filter></defs>
<rect width="1440" height="1024" fill="#F4FAF8"/><rect x="40" y="36" width="222" height="952" rx="24" fill="#FFFFFF" filter="url(#shadow)"/>
<circle cx="82" cy="88" r="22" fill="#DDF5EF"/><path d="M72 88h20M82 78v20" stroke="#15A3A3" stroke-width="3" stroke-linecap="round"/><text x="116" y="84" class="ink" font-size="22" font-weight="900">HealthGuard</text><text x="116" y="108" class="muted small">运营后台</text>
<rect x="62" y="140" width="156" height="42" rx="12" fill="#F3FBF9"/><circle cx="84" cy="161" r="6" fill="#15A3A3"/><text x="104" y="166" class="teal label">运营总览</text>
<text x="104" y="224" class="muted label">用户支持</text><circle cx="84" cy="219" r="6" fill="#DCE9E6"/>
<text x="104" y="282" class="muted label">报告模板</text><circle cx="84" cy="277" r="6" fill="#DCE9E6"/>
<text x="104" y="340" class="muted label">Pro 权益</text><circle cx="84" cy="335" r="6" fill="#DCE9E6"/>
<text x="104" y="398" class="muted label">审计日志</text><circle cx="84" cy="393" r="6" fill="#DCE9E6"/>
<text x="300" y="88" class="muted small">组织管理端 / 运营后台</text><text x="300" y="128" class="ink h1">运营配置与审计</text><rect x="1260" y="76" width="124" height="40" rx="14" fill="#15A3A3"/><text x="1322" y="101" text-anchor="middle" fill="#FFFFFF" class="label">新建模板</text>
<rect x="300" y="164" width="250" height="126" rx="18" fill="#FFFFFF" filter="url(#shadow)"/><text x="326" y="198" class="muted label">待处理工单</text><text x="326" y="238" class="ink num">18</text><text x="326" y="268" class="muted small">不展示健康明细</text>
<rect x="572" y="164" width="250" height="126" rx="18" fill="#FFFFFF" filter="url(#shadow)"/><text x="598" y="198" class="muted label">报告模板</text><text x="598" y="238" class="ink num">6 个</text><text x="598" y="268" class="muted small">2 个草稿</text>
<rect x="844" y="164" width="250" height="126" rx="18" fill="#FFFFFF" filter="url(#shadow)"/><text x="870" y="198" class="muted label">权益补偿</text><text x="870" y="238" class="ink num">4 单</text><text x="870" y="268" class="muted small">需填写原因</text>
<rect x="1116" y="164" width="268" height="126" rx="18" fill="#FFFFFF" filter="url(#shadow)"/><text x="1142" y="198" class="muted label">敏感访问</text><text x="1142" y="238" class="ink num">2 次</text><text x="1142" y="268" fill="#D8792A" class="small">需审计复核</text>
<rect x="300" y="322" width="724" height="610" rx="22" fill="#FFFFFF" filter="url(#shadow)"/><text x="330" y="362" class="ink h2">运营配置</text>
<line x1="330" y1="392" x2="994" y2="392" class="line"/><text x="330" y="424" class="muted label">对象</text><text x="548" y="424" class="muted label">状态</text><text x="706" y="424" class="muted label">操作者</text><text x="870" y="424" class="muted label">更新时间</text>
<line x1="330" y1="444" x2="994" y2="444" class="line"/><text x="330" y="478" class="ink label">月报模板 v3</text><text x="548" y="478" class="teal small">已发布</text><text x="706" y="478" class="ink small">content_ops</text><text x="870" y="478" class="muted small">05-20</text>
<line x1="330" y1="506" x2="994" y2="506" class="line"/><text x="330" y="540" class="ink label">AI 饮水建议</text><text x="548" y="540" fill="#D8792A" class="small">草稿</text><text x="706" y="540" class="ink small">content_ops</text><text x="870" y="540" class="muted small">05-19</text>
<line x1="330" y1="568" x2="994" y2="568" class="line"/><text x="330" y="602" class="ink label">Pro 年付权益</text><text x="548" y="602" class="teal small">启用</text><text x="706" y="602" class="ink small">commerce_ops</text><text x="870" y="602" class="muted small">05-18</text>
<rect x="330" y="686" width="664" height="170" rx="18" fill="#FFF7ED" stroke="#F0D9B6"/><text x="356" y="724" class="ink h2">敏感操作确认</text><text x="356" y="760" class="muted small">查看敏感数据、人工发放权益、导出日志都需要二次确认和原因。</text><rect x="356" y="802" width="156" height="38" rx="12" fill="#15A3A3"/><text x="434" y="826" text-anchor="middle" fill="#FFFFFF" class="label">填写原因</text>
<rect x="1052" y="322" width="332" height="610" rx="22" fill="#FFFFFF" filter="url(#shadow)"/><text x="1082" y="362" class="ink h2">最近审计日志</text>
<rect x="1082" y="392" width="272" height="74" rx="16" fill="#F3FBF9"/><text x="1104" y="424" class="ink label">发布报告模板</text><text x="1104" y="448" class="muted small">content_ops / 05-20 10:12</text>
<rect x="1082" y="486" width="272" height="74" rx="16" fill="#FFF7ED"/><text x="1104" y="518" class="ink label">查看用户支持摘要</text><text x="1104" y="542" class="muted small">support / 已脱敏</text>
<rect x="1082" y="580" width="272" height="74" rx="16" fill="#F8FCFB"/><text x="1104" y="612" class="ink label">人工发放权益</text><text x="1104" y="636" class="muted small">commerce_ops / 有效期 30 天</text>
<rect x="1082" y="740" width="272" height="54" rx="16" fill="#173844"/><text x="1218" y="774" text-anchor="middle" fill="#FFFFFF" class="label">打开审计中心</text>
</svg>
