<?xml version="1.0" encoding="UTF-8"?>
<svg xmlns="http://www.w3.org/2000/svg" width="1440" height="1024" viewBox="0 0 1440 1024" role="img" aria-labelledby="title desc">
<title id="title">Web 登录页</title><desc id="desc">HealthGuard Web 登录页 prototype.</desc><style>
    text{font-family:"Microsoft YaHei","PingFang SC","Noto Sans CJK SC",Arial,sans-serif;letter-spacing:0}
    .hair{shape-rendering:geometricPrecision}.caption{fill:#61727B}
  </style><defs>
    <filter id="softShadow" x="-20%" y="-20%" width="140%" height="150%"><feDropShadow dx="0" dy="12" stdDeviation="14" flood-color="#12343C" flood-opacity="0.10"/></filter>
    <filter id="phoneShadow" x="-30%" y="-20%" width="160%" height="150%"><feDropShadow dx="0" dy="18" stdDeviation="18" flood-color="#0B2630" flood-opacity="0.18"/></filter>
    <linearGradient id="tealBand" x1="0" x2="1"><stop offset="0" stop-color="#E5F8F2"/><stop offset="1" stop-color="#F8FCFB"/></linearGradient>
    <linearGradient id="buttonGrad" x1="0" x2="1"><stop offset="0" stop-color="#15A3A3"/><stop offset="1" stop-color="#087B83"/></linearGradient>
  </defs><rect x="0" y="0" width="1440" height="1024" rx="0" fill="#EEF7F5"/>
    <rect x="0" y="0" width="1440" height="1024" rx="0" fill="#F4FAF8"/>
    <rect x="96" y="86" width="1248" height="852" rx="30" fill="#FFFFFF" filter="url(#softShadow)"/>
    <rect x="96" y="86" width="650" height="852" rx="30" fill="#EAF7F4"/><rect x="96" y="86" width="650" height="852" rx="30" fill="#EAF7F4"/>
    <circle cx="164" cy="164" r="28" fill="#FFFFFF"/><path d="M152 164h24M164 152v24" stroke="#15A3A3" fill="none" stroke-width="4" stroke-linecap="round" stroke-linejoin="round"/><text x="208" y="157" font-size="28" fill="#173844" font-weight="900">HealthGuard</text><text x="208" y="187" font-size="16" fill="#61727B" font-weight="600">轻体征管家 Web</text>
    <text x="164" y="306" font-size="46" fill="#173844" font-weight="900">健康数据一屏清晰</text><text x="164" y="360" font-size="20" fill="#61727B" font-weight="600">登录后查看健康分数、四类核心指标、AI 洞察与陪伴上下文摘要。</text>
    <rect x="164" y="446" width="486" height="166" rx="24" fill="#FFFFFF" filter="url(#softShadow)"/><text x="196" y="492" font-size="20" fill="#173844" font-weight="800">今日预览</text>
    <rect x="196" y="520" width="124" height="70" rx="18" fill="#FFFFFF" filter="url(#softShadow)"/><circle cx="222" cy="548" r="12" fill="#15A3A3" opacity="0.14"/><circle cx="222" cy="548" r="5" fill="#15A3A3"/><text x="242" y="550" font-size="14" fill="#61727B" font-weight="600">步数</text><text x="214" y="586" font-size="23" fill="#173844" font-weight="800">7,860</text><text x="214" y="612" font-size="12" fill="#61727B" font-weight="500"></text><rect x="338" y="520" width="124" height="70" rx="18" fill="#FFFFFF" filter="url(#softShadow)"/><circle cx="364" cy="548" r="12" fill="#6974D5" opacity="0.14"/><circle cx="364" cy="548" r="5" fill="#6974D5"/><text x="384" y="550" font-size="14" fill="#61727B" font-weight="600">睡眠</text><text x="356" y="586" font-size="23" fill="#173844" font-weight="800">7.2h</text><text x="356" y="612" font-size="12" fill="#61727B" font-weight="500"></text><rect x="480" y="520" width="124" height="70" rx="18" fill="#FFFFFF" filter="url(#softShadow)"/><circle cx="506" cy="548" r="12" fill="#4A90E2" opacity="0.14"/><circle cx="506" cy="548" r="5" fill="#4A90E2"/><text x="526" y="550" font-size="14" fill="#61727B" font-weight="600">饮水</text><text x="498" y="586" font-size="23" fill="#173844" font-weight="800">1,500ml</text><text x="498" y="612" font-size="12" fill="#61727B" font-weight="500"></text>
    <rect x="164" y="670" width="486" height="90" rx="24" fill="#153442"/><text x="196" y="708" font-size="20" fill="#FFFFFF" font-weight="800">AI 洞察</text><text x="196" y="740" font-size="16" fill="#DCE9E6" font-weight="600">晚餐前补水 300ml，并安排 15 分钟轻快步行。</text>
    <rect x="844" y="220" width="392" height="536" rx="28" fill="#FFFFFF" filter="url(#softShadow)"/><text x="896" y="284" font-size="34" fill="#173844" font-weight="900">登录并继续</text><text x="896" y="322" font-size="16" fill="#61727B" font-weight="600">手机号验证码登录</text>
    <rect x="896" y="378" width="288" height="62" rx="14" fill="#F8FCFB" stroke="#DCE9E6" stroke-width="1"/><text x="914" y="401" font-size="13" fill="#61727B" font-weight="500">手机号</text><text x="914" y="425" font-size="17" fill="#173844" font-weight="700">138 0013 8000</text><rect x="896" y="462" width="180" height="62" rx="14" fill="#F8FCFB" stroke="#DCE9E6" stroke-width="1"/><text x="914" y="485" font-size="13" fill="#61727B" font-weight="500">验证码</text><text x="914" y="509" font-size="17" fill="#173844" font-weight="700">123456</text><rect x="1088" y="476" width="96" height="34" rx="17" fill="#EAF7F4"/><text x="1136" y="498" font-size="14" fill="#087B83" font-weight="700" text-anchor="middle">获取验证码</text>
    <rect x="896" y="562" width="288" height="54" rx="16" fill="url(#buttonGrad)"/><text x="1040" y="596" font-size="17" fill="#FFFFFF" font-weight="800" text-anchor="middle">进入工作台</text>
    <line x1="896" y1="660" x2="1184" y2="660" stroke="#DCE9E6" stroke-width="1" stroke-linecap="round"/><text x="896" y="700" font-size="15" fill="#61727B" font-weight="500">表单错误、加载和重试状态在当前卡片内展示。</text>
  
</svg>
